<?xml version="1.0" encoding="iso-8859-1"?>
<!-- Uploaded to: SVG Repo, www.svgrepo.com, Generator: SVG Repo Mixer Tools -->
<svg height="800px" width="800px" version="1.1" id="Layer_1" xmlns="http://www.w3.org/2000/svg" xmlns:xlink="http://www.w3.org/1999/xlink" 
	 viewBox="0 0 512 512" xml:space="preserve">
<path d="M293.695,219.948c-0.884,0-1.781-0.095-2.652-0.272c-0.87-0.177-1.727-0.435-2.543-0.775
	c-0.816-0.34-1.617-0.762-2.351-1.251c-0.748-0.488-1.443-1.059-2.068-1.685c-0.626-0.626-1.197-1.32-1.685-2.068
	c-0.49-0.734-0.911-1.523-1.251-2.351c-0.34-0.817-0.598-1.673-0.775-2.543c-0.177-0.872-0.272-1.768-0.272-2.652
	s0.095-1.783,0.272-2.665c0.177-0.857,0.435-1.713,0.775-2.543c0.34-0.816,0.762-1.605,1.251-2.339
	c0.488-0.748,1.059-1.443,1.685-2.068c0.626-0.626,1.32-1.197,2.068-1.7c0.734-0.488,1.537-0.911,2.351-1.251
	c0.817-0.34,1.673-0.597,2.543-0.775c4.42-0.883,9.111,0.558,12.268,3.726c2.543,2.529,3.997,6.038,3.997,9.614
	c0,0.884-0.094,1.781-0.271,2.652c-0.178,0.87-0.435,1.727-0.775,2.543c-0.34,0.828-0.763,1.617-1.251,2.351
	c-0.503,0.748-1.074,1.443-1.7,2.068c-0.626,0.626-1.32,1.197-2.068,1.685c-0.734,0.49-1.523,0.911-2.339,1.251
	c-0.83,0.34-1.686,0.598-2.543,0.775C295.478,219.853,294.581,219.948,293.695,219.948z"/>
<ellipse style="fill:#7BFFCD;" cx="190.535" cy="421.907" rx="103.162" ry="76.494"/>
<path style="fill:#FF5050;" d="M239.305,130.77c3.043,4.756,18.579,25.35,60.596,29.079c50.735,4.488,85.604,15.163,109.742,33.578
	c6.549,5,11.397,10.046,14.978,14.766c-2.238-25.943-10.795-77.548-25.083-98.433c-2.179-3.181-4.348-6.06-6.457-8.566
	c-17.084-20.28-49.58-37.737-84.814-45.581c-27.692-6.155-55.523-29.431-68.962-42.017L239.305,130.77L239.305,130.77z"/>
<path d="M438.17,207.025c-2.215-25.678-10.793-80.657-27.411-104.948c-2.431-3.549-4.878-6.793-7.278-9.644
	C384.58,69.995,349.227,50.8,311.218,42.337c-25.238-5.61-52.198-28.909-62.618-38.666c-3.955-3.704-9.73-4.703-14.705-2.551
	c-4.972,2.155-8.189,7.056-8.189,12.477v110.898v6.276v205.174c-11.24-2.709-23.067-4.138-35.165-4.138
	c-30.453,0-59.236,8.907-81.047,25.081c-23.031,17.079-35.715,40.169-35.715,65.017s12.684,47.938,35.715,65.015
	C131.305,503.093,160.087,512,190.541,512c30.452,0,59.234-8.907,81.046-25.081c21.877-16.221,34.393-37.872,35.595-61.296
	c0.071-0.56,0.118-1.127,0.118-1.708V247.143c0-7.509-6.09-13.599-13.599-13.599s-13.599,6.09-13.599,13.599v116.775
	c-2.661-2.438-5.494-4.788-8.517-7.031c-5.769-4.278-12.036-8.03-18.681-11.261V160.312c10.897,6.038,25.788,11.306,45.798,13.082
	c48.048,4.25,80.678,14.05,102.687,30.841c4.984,3.805,9.155,7.902,12.398,12.176c2.629,3.464,6.673,5.381,10.838,5.381
	c1.635,0,3.288-0.296,4.882-0.91C435.16,218.709,438.691,213.059,438.17,207.025z M280.102,421.904
	c0,16.018-8.778,31.35-24.716,43.168c-17.158,12.722-40.188,19.729-64.847,19.729s-47.689-7.006-64.848-19.729
	c-15.938-11.819-24.716-27.15-24.716-43.168c0-16.018,8.778-31.35,24.717-43.168c17.158-12.723,40.188-19.731,64.847-19.731
	s47.687,7.006,64.845,19.731C271.324,390.555,280.102,405.885,280.102,421.904z M301.103,146.304
	c-29.541-2.622-43.269-14.477-48.197-20.087v-1.723v-81.83c14.948,11.067,33.497,22.019,52.408,26.223
	c31.981,7.12,62.35,23.242,77.364,41.063c1.818,2.161,3.715,4.681,5.638,7.489c7.562,11.052,13.848,34.551,17.998,57.317
	C380.998,159.495,347.089,150.372,301.103,146.304z"/>
</svg>