<svg xmlns="http://www.w3.org/2000/svg" shape-rendering="geometricPrecision" text-rendering="geometricPrecision" image-rendering="optimizeQuality" fill-rule="evenodd" clip-rule="evenodd" viewBox="0 0 421 511.605"><path fill="#E44B4D" d="M95.705.014h199.094L421 136.548v317.555c0 31.54-25.961 57.502-57.502 57.502H95.705c-31.55 0-57.502-25.873-57.502-57.502V57.515C38.203 25.886 64.076.014 95.705.014z"/><path fill="#CD4445" d="M341.028 133.408h-.019L421 188.771v-52.066h-54.357c-9.458-.15-17.998-1.274-25.615-3.297z"/><path fill="#FBCFD0" d="M294.8 0L421 136.533v.172h-54.357c-45.068-.718-69.33-23.397-71.843-61.384V0z"/><path fill="#CD4445" fill-rule="nonzero" d="M0 431.901V253.404l.028-1.261c.668-16.446 14.333-29.706 30.936-29.706h7.238v50.589h342.975c12.862 0 23.373 10.51 23.373 23.371v135.504c0 12.83-10.543 23.373-23.373 23.373H23.373C10.541 455.274 0 444.75 0 431.901z"/><path fill="#963232" fill-rule="nonzero" d="M143.448 181.188a8.496 8.496 0 010-16.993h172.304a8.496 8.496 0 110 16.993H143.448zm0 59.176a8.496 8.496 0 01-8.496-8.497 8.496 8.496 0 018.496-8.497h163.176a8.496 8.496 0 018.496 8.497 8.496 8.496 0 01-8.496 8.497H143.448z"/><path fill="#fff" fill-rule="nonzero" d="M11.329 276.171v154.728c0 7.793 6.38 14.178 14.179 14.178H380.175c7.799 0 14.178-6.379 14.178-14.178V297.405c0-7.798-6.388-14.178-14.178-14.178H37.892c-12.618-.096-19.586-1.638-26.563-7.056z"/><path fill="#1A1A1A" fill-rule="nonzero" d="M99.525 401.572H72.14l4.98-81.894h34.199l10.22 41.669h.916l10.221-41.669h34.199l4.979 81.894h-27.385l-1.573-39.701h-.917l-9.958 39.701h-20.047l-10.089-39.701h-.786l-1.574 39.701zm127.361-19.785h-17.035v19.785h-26.205v-81.894h41.274c18.782 0 28.171 10.09 28.171 30.269 0 11.094-2.445 19.306-7.336 24.634-1.835 2.008-4.368 3.712-7.6 5.11-3.233 1.396-6.988 2.096-11.269 2.096zm-17.035-41.144v20.179h6.029c3.145 0 5.437-.327 6.878-.982 1.443-.656 2.162-2.162 2.162-4.522v-9.171c0-2.359-.719-3.866-2.162-4.521-1.441-.655-3.733-.983-6.878-.983h-6.029zm88.972 60.929v-13.103h-40.359v-16.378l20.18-52.413h46.384v46.254h8.516v22.537h-8.516v13.103h-26.205zm-1.31-62.239l-11.664 26.599h12.974v-26.599h-1.31z"/></svg>