<svg xmlns="http://www.w3.org/2000/svg" shape-rendering="geometricPrecision" text-rendering="geometricPrecision" image-rendering="optimizeQuality" fill-rule="evenodd" clip-rule="evenodd" viewBox="0 0 421 511.605"><path fill="#E44B4D" d="M95.705.014h199.094L421 136.548v317.555c0 31.54-25.961 57.502-57.502 57.502H95.705c-31.55 0-57.502-25.873-57.502-57.502V57.515C38.203 25.886 64.076.014 95.705.014z"/><path fill="#CD4445" d="M341.028 133.408h-.019L421 188.771v-52.066h-54.357c-9.458-.15-17.998-1.274-25.615-3.297z"/><path fill="#FBCFD0" d="M294.8 0L421 136.533v.172h-54.357c-45.068-.718-69.33-23.397-71.843-61.384V0z"/><path fill="#CD4445" fill-rule="nonzero" d="M0 431.901V253.404l.028-1.261c.668-16.446 14.333-29.706 30.936-29.706h7.238v50.589h357.136c12.862 0 23.373 10.51 23.373 23.371v135.504c0 12.83-10.543 23.373-23.373 23.373H23.373C10.541 455.274 0 444.75 0 431.901z"/><path fill="#963232" fill-rule="nonzero" d="M143.448 240.364a8.496 8.496 0 01-8.496-8.497 8.496 8.496 0 018.496-8.497h163.176a8.496 8.496 0 018.496 8.497 8.496 8.496 0 01-8.496 8.497H143.448zm0-59.176a8.496 8.496 0 010-16.993h172.304a8.496 8.496 0 110 16.993H143.448z"/><path fill="#fff" fill-rule="nonzero" d="M11.329 276.171v154.728c0 7.793 6.38 14.178 14.179 14.178h368.828c7.799 0 14.179-6.379 14.179-14.178V297.405c0-7.798-6.395-14.178-14.179-14.178H37.892c-12.618-.096-19.586-1.638-26.563-7.056z"/><path fill="#1A1A1A" fill-rule="nonzero" d="M48.361 403.21l-13.102-65.515H60.94l5.373 38.916h1.441l8.255-38.916h19.654L103 376.611h1.443l6.29-38.916h25.68L123.31 403.21H91.078l-5.11-28.171h-1.049l-5.635 28.171H48.361zm118.058-22.275v4.586c2.622.263 5.243.394 7.863.394 8.125 0 16.334-1.311 24.634-3.931l3.145 19.261c-9.785 2.62-19.481 3.93-29.089 3.93-12.23 0-21.074-2.86-26.533-8.582-5.461-5.722-8.191-14.435-8.191-26.139 0-11.706 2.73-20.419 8.191-26.141 5.459-5.723 14.281-8.583 26.466-8.583 12.186 0 20.595 1.659 25.223 4.98 4.631 3.318 6.945 9.52 6.945 18.605 0 7.688-2.772 13.213-8.319 16.576-5.547 3.363-15.658 5.044-30.335 5.044zm0-20.571v5.371h5.373c3.145 0 5.438-.327 6.879-.982 1.44-.655 2.162-2.162 2.162-4.522v-5.371h-5.371c-3.145 0-5.438.328-6.881.983-1.441.655-2.162 2.162-2.162 4.521zm44.55 39.571v-81.894l26.205-1.965v21.75c3.321-1.398 7.666-2.096 13.038-2.096 5.373 0 9.98 1.004 13.825 3.014 3.843 2.008 6.769 4.759 8.779 8.255 3.755 6.551 5.633 14.369 5.633 23.455 0 12.316-2.839 21.181-8.516 26.597-5.678 5.416-14.281 8.124-25.814 8.124-11.53 0-22.579-1.746-33.15-5.24zm26.205-40.226v26.336h4.063c3.145 0 5.438-.327 6.879-.982 1.441-.656 2.162-2.163 2.162-4.522V354.86h-4.061c-1.922 0-3.451.088-4.586.262a5.967 5.967 0 00-3.014 1.376c-.873.743-1.355 1.813-1.443 3.211zm84.517-2.359h-1.835c-2.008 0-3.515.088-4.521.261-1.004.176-1.942.721-2.816 1.638-.873.918-1.312 2.293-1.312 4.127v39.834h-26.205v-65.515h13.104l5.895 6.026c5.329-5.328 12.319-7.991 20.965-7.991 8.649 0 14.894 1.79 18.738 5.371 5.329-3.581 11.509-5.371 18.54-5.371 7.032 0 12.513 1.332 16.445 3.997 3.931 2.663 5.896 6.354 5.896 11.072v52.411H358.38v-45.86h-1.835c-1.835 0-3.276.088-4.324.261-1.049.176-2.011.655-2.884 1.443-.874.786-1.353 1.965-1.441 3.537v40.619h-26.205v-45.86z"/></svg>