<?xml version="1.0" ?><!-- Uploaded to: SVG Repo, www.svgrepo.com, Generator: SVG Repo Mixer Tools -->
<svg width="800px" height="800px" viewBox="0 0 32 32" enable-background="new 0 0 32 32" id="Filled_Line" version="1.1" xml:space="preserve" xmlns="http://www.w3.org/2000/svg" xmlns:xlink="http://www.w3.org/1999/xlink"><path d="M5.998,19H12v5.974C12,26.093,12.907,27,14.026,27c0.615,0,1.198-0.28,1.582-0.76L23,17  l-0.001,0L23,17V7l-3-2H7.527C6.636,5,5.852,5.592,5.607,6.451l-2.49,8.725C2.57,17.092,4.007,19,5.998,19z" fill="#F3A17D" id="XMLID_906_"/><path d="M15.147,25.803C14.421,25.467,14,24.689,14,23.889V18.5c0-0.276-0.224-0.5-0.5-0.5H7.489  c-1.652,0-2.846-1.581-2.392-3.17l2.677-9.381C7.821,5.285,7.903,5.142,7.986,5H7.527C6.636,5,5.852,5.592,5.607,6.451l-2.49,8.725  C2.57,17.092,4.007,19,5.998,19H12v5.974C12,26.093,12.907,27,14.026,27c0.615,0,1.198-0.28,1.582-0.76l0.205-0.257  C15.584,25.958,15.358,25.901,15.147,25.803z" fill="#C3866B" id="XMLID_386_"/><path d="M23,7l-3-2H7.527C6.636,5,5.852,5.592,5.607,6.451L5.446,7.014C5.475,7.012,5.5,7,5.529,7  h13.053c0.271,0,0.534,0.089,0.749,0.254l1.185,0.907C20.821,8.394,21,8.756,21,9.14V19l-0.001,0l0,0.501L23,17l-0.001,0L23,17V7z" fill="#FFFFFF" id="XMLID_387_"/><rect fill="#F9ED69" height="14" id="XMLID_895_" transform="matrix(-1 -8.988867e-11 8.988867e-11 -1 52 24)" width="6" x="23" y="5"/><path d="M23,5v2h3.5C26.776,7,27,7.224,27,7.5V19h2V5H23z" fill="#FBF4A5" id="XMLID_388_"/><rect fill="#BBB24F" height="14" id="XMLID_389_" width="2" x="23" y="5"/><path d="  M5.998,19H12v5.974C12,26.093,12.907,27,14.026,27c0.615,0,1.198-0.28,1.582-0.76L23,17l-0.001,0L23,17V7l-3-2H7.527  C6.636,5,5.852,5.592,5.607,6.451l-2.49,8.725C2.57,17.092,4.007,19,5.998,19z" fill="none" id="XMLID_870_" stroke="#200F60" stroke-linecap="round" stroke-linejoin="round" stroke-miterlimit="10" stroke-width="2"/><rect fill="none" height="14" id="XMLID_869_" stroke="#200F60" stroke-linecap="round" stroke-linejoin="round" stroke-miterlimit="10" stroke-width="2" transform="matrix(-1 -8.988867e-11 8.988867e-11 -1 52 24)" width="6" x="23" y="5"/><circle cx="26" cy="9" fill="#C6627E" id="XMLID_868_" r="1"/></svg>