<?xml version="1.0" encoding="utf-8"?>
<!-- Svg Vector Icons : http://www.onlinewebfonts.com/icon -->
<!DOCTYPE svg PUBLIC "-//W3C//DTD SVG 1.1//EN" "http://www.w3.org/Graphics/SVG/1.1/DTD/svg11.dtd">
<svg version="1.1" xmlns="http://www.w3.org/2000/svg" xmlns:xlink="http://www.w3.org/1999/xlink" x="0px" y="0px" viewBox="0 0 1000 1000" enable-background="new 0 0 1000 1000" xml:space="preserve">
<metadata> Svg Vector Icons : http://www.onlinewebfonts.com/icon </metadata>
<g><path d="M307.8,445.1V331.9h415.7c44,0,82.2,24.9,101.3,61.4c14.3-20.3,22.8-45.1,22.8-71.9l0,0c0-69-55.9-124.9-124.9-124.9H307.8V82.9c0-16.7-18.9-26.5-32.5-16.9L18.7,247.1c-11.6,8.2-11.6,25.5,0,33.7l256.6,181.1C289,471.6,307.8,461.8,307.8,445.1z"/><path d="M981.3,719.2L724.7,538.1c-13.7-9.6-32.5,0.1-32.5,16.9v113.2H276.5c-44,0-82.2-24.9-101.3-61.4c-14.3,20.3-22.8,45.1-22.8,71.9l0,0c0,69,55.9,124.9,124.9,124.9h414.9v113.6c0,16.7,18.9,26.5,32.5,16.9l256.6-181.1C992.9,744.7,992.9,727.4,981.3,719.2z"/></g>
</svg>